<svg aria-hidden="true" style="width:0;height:0;position:absolute;overflow:hidden" xmlns="http://www.w3.org/2000/svg"><defs><symbol id="icon-heart" viewBox="0 0 34 32"><path fill="#ff6b08" d="m17.231 31.705-2.412-2.412C5.859 21.367.001 16.025.001 9.478.001 4.136 4.136.001 9.478.001c2.929 0 5.858 1.378 7.754 3.618 1.895-2.24 4.825-3.618 7.754-3.618 5.342 0 9.477 4.135 9.477 9.477 0 6.548-5.858 11.889-14.818 19.815l-2.412 2.412z"/></symbol><symbol id="github" viewBox="0 0 32 32"><path d="M29.854 8.36c-1.431-2.451-3.371-4.392-5.823-5.823S18.903.391 16 .391c-2.903 0-5.58.715-8.031 2.146S3.577 5.908 2.146 8.36C.715 10.811 0 13.488 0 16.391c0 3.486 1.017 6.621 3.052 9.406s4.663 4.712 7.885 5.781c.375.07.653.021.833-.146s.271-.375.271-.625l-.011-1.125c-.007-.709-.011-1.326-.011-1.854l-.479.083c-.306.056-.691.08-1.156.073s-.948-.055-1.448-.146c-.5-.09-.965-.298-1.396-.625s-.736-.754-.916-1.281l-.208-.479c-.139-.319-.357-.674-.656-1.062s-.601-.653-.906-.792l-.146-.104c-.097-.069-.187-.153-.271-.25s-.146-.194-.187-.292c-.042-.097-.007-.177.104-.24s.312-.093.604-.093l.417.062c.278.056.621.222 1.031.5s.746.639 1.01 1.083c.32.57.705 1.004 1.156 1.302s.906.448 1.364.448.854-.035 1.187-.104c.333-.069.646-.174.937-.313.125-.931.465-1.646 1.021-2.146-.792-.083-1.503-.208-2.135-.375s-1.285-.438-1.958-.813c-.674-.375-1.233-.84-1.677-1.396s-.809-1.285-1.094-2.188c-.285-.903-.427-1.944-.427-3.125 0-1.681.549-3.111 1.646-4.292-.514-1.264-.465-2.68.146-4.25.403-.125 1-.031 1.792.281s1.371.58 1.74.802c.368.222.663.41.885.562 1.292-.361 2.625-.541 4-.541s2.708.181 4 .541l.792-.5c.541-.333 1.181-.639 1.916-.917s1.299-.354 1.688-.229c.625 1.569.68 2.986.166 4.25 1.097 1.181 1.646 2.611 1.646 4.292 0 1.18-.143 2.225-.427 3.135s-.652 1.639-1.104 2.188c-.452.549-1.014 1.011-1.688 1.385s-1.327.646-1.958.813c-.632.167-1.344.292-2.135.375.722.625 1.083 1.611 1.083 2.958v4.395c0 .25.087.458.261.625s.448.215.823.146c3.222-1.069 5.851-2.996 7.886-5.781S32 19.873 32 16.387c-.001-2.902-.716-5.579-2.146-8.03z"/></symbol><symbol id="cancel" viewBox="0 0 32 32"><path d="M16 0C7.163 0 0 7.163 0 16s7.163 16 16 16 16-7.163 16-16S24.837 0 16 0zm0 29C8.82 29 3 23.18 3 16S8.82 3 16 3s13 5.82 13 13-5.82 13-13 13z"/><path d="m21 8-5 5-5-5-3 3 5 5-5 5 3 3 5-5 5 5 3-3-5-5 5-5z"/></symbol><symbol id="linkedin" viewBox="0 0 32 32"><path d="M29 0H3C1.35 0 0 1.35 0 3v26c0 1.65 1.35 3 3 3h26c1.65 0 3-1.35 3-3V3c0-1.65-1.35-3-3-3zM12 26H8V12h4v14zm-2-16c-1.106 0-2-.894-2-2s.894-2 2-2c1.106 0 2 .894 2 2s-.894 2-2 2zm16 16h-4v-8c0-1.106-.894-2-2-2s-2 .894-2 2v8h-4V12h4v2.481C18.825 13.35 20.087 12 21.5 12c2.488 0 4.5 2.238 4.5 5v9z"/></symbol></defs></svg>