<svg aria-hidden="true" style="position:absolute;width:0;height:0" xmlns="http://www.w3.org/2000/svg" overflow="hidden"><defs>
  <symbol id="icon-film" xmlns="http://www.w3.org/2000/svg" viewBox="0 0 24 24">
    <path d="M19.82 2H4.18C2.97602 2 2 2.97602 2 4.18V19.82C2 21.024 2.97602 22 4.18 22H19.82C21.024 22 22 21.024 22 19.82V4.18C22 2.97602 21.024 2 19.82 2Z"  stroke-width="2" stroke-linecap="round" stroke-linejoin="round"></path>
    <path d="M7 2V22"  stroke-width="2" stroke-linecap="round" stroke-linejoin="round"></path>
    <path d="M17 2V22"  stroke-width="2" stroke-linecap="round" stroke-linejoin="round"></path>
    <path d="M2 12H22"  stroke-width="2" stroke-linecap="round" stroke-linejoin="round"></path>
    <path d="M2 7H7"  stroke-width="2" stroke-linecap="round" stroke-linejoin="round"></path>
    <path d="M2 17H7"  stroke-width="2" stroke-linecap="round" stroke-linejoin="round"></path>
    <path d="M17 17H22"  stroke-width="2" stroke-linecap="round" stroke-linejoin="round"></path>
    <path d="M17 7H22"  stroke-width="2" stroke-linecap="round" stroke-linejoin="round"></path>
  </symbol>
  <symbol id="icon-closeBtnModal" viewBox="0 0 20 20"><path d="M10 8.586l-7.071-7.071-1.414 1.414 7.071 7.071-7.071 7.071 1.414 1.414 7.071-7.071 7.071 7.071 1.414-1.414-7.071-7.071 7.071-7.071-1.414-1.414-7.071 7.071z"></path></symbol>
  <symbol id="icon-search" viewBox="0 0 32 32"><path fill="none" stroke="var(--color1, #fff)" stroke-linejoin="round" stroke-linecap="round" stroke-width="2.667" d="M14.667 25.333c5.891 0 10.667-4.776 10.667-10.667S20.558 3.999 14.667 3.999 4 8.775 4 14.666s4.776 10.667 10.667 10.667zM28 28.001l-5.8-5.8"/></symbol>
  <symbol id="icon-favorite" viewBox="0 0 34 32"><path fill="var(--color2, #ff6b08)" d="M17.231 31.705l-2.412-2.412C5.859 21.367.001 16.025.001 9.478.001 4.136 4.136.001 9.478.001c2.929 0 5.858 1.378 7.754 3.618 1.895-2.24 4.825-3.618 7.754-3.618 5.342 0 9.477 4.135 9.477 9.477 0 6.548-5.858 11.889-14.818 19.815l-2.412 2.412z"/></symbol>
  <symbol id="icon-flms" viewBox="0 0 32 32"><path fill="none" stroke="var(--color3, #ff6b08)" stroke-linejoin="round" stroke-linecap="round" stroke-width="2.667" d="M26.427 2.667H5.574a2.907 2.907 0 00-2.907 2.907v20.853a2.907 2.907 0 002.907 2.907h20.853a2.907 2.907 0 002.907-2.907V5.574a2.907 2.907 0 00-2.907-2.907zM9.333 2.667v26.667M22.667 2.667v26.667M2.667 16h26.667M2.667 9.333h6.667M2.667 22.667h6.667M22.667 22.667h6.667M22.667 9.333h6.667"/></symbol>
  <symbol id="icon-close" viewBox="0 0 32 32"><path d="M32 0l-32 18 10.227 3.788 15.773-14.788-11.998 16.186 0.010 0.004-0.012-0.004v8.814l5.735-6.691 7.265 2.691 5-28z"/></symbol>
  <symbol id="icon-play" viewBox="0 0 32 32">
  <symbol id="icon-arrow-up2" viewBox="0 0 32 32"><path d="M27.414 12.586l-10-10c-0.781-0.781-2.047-0.781-2.828 0l-10 10c-0.781 0.781-0.781 2.047 0 2.828s2.047 0.781 2.828 0l6.586-6.586v19.172c0 1.105 0.895 2 2 2s2-0.895 2-2v-19.172l6.586 6.586c0.39 0.39 0.902 0.586 1.414 0.586s1.024-0.195 1.414-0.586c0.781-0.781 0.781-2.047 0-2.828z"></path></symbol>
  <path d="M30.662 5.003c-4.488-0.645-9.448-1.003-14.662-1.003s-10.174 0.358-14.662 1.003c-0.86 3.366-1.338 7.086-1.338 10.997s0.477 7.63 1.338 10.997c4.489 0.645 9.448 1.003 14.662 1.003s10.174-0.358 14.662-1.003c0.86-3.366 1.338-7.086 1.338-10.997s-0.477-7.63-1.338-10.997zM12 22v-12l10 6-10 6z"></path></symbol><symbol id="icon-menu" viewBox="0 0 32 32"><path d="M6.4 11.734v-2.134h19.2v2.134h-19.2zM6.4 17.066h19.2v-2.133h-19.2v2.133zM6.4 22.4h19.2v-2.134h-19.2v2.134z"></path></symbol><symbol id="icon-cross" viewBox="0 0 32 32"><path d="M23.734 10.304l-1.504-1.504-5.963 5.962-5.962-5.962-1.504 1.504 5.962 5.962-5.962 5.963 1.504 1.504 5.962-5.963 5.963 5.963 1.504-1.504-5.963-5.963 5.963-5.962z"></path></symbol>
  </defs>
</svg>

